<?xml version="1.0" encoding="utf-8"?>
<!-- Generator: Adobe Illustrator 24.3.0, SVG Export Plug-In . SVG Version: 6.00 Build 0)  -->
<svg version="1.1" id="Layer_1" xmlns="http://www.w3.org/2000/svg" xmlns:xlink="http://www.w3.org/1999/xlink" x="0px" y="0px"
	 viewBox="0 0 1600 630" style="enable-background:new 0 0 1600 630;" xml:space="preserve">
<style type="text/css">
	.st0{fill:#687178;}
	.st1{fill:#958761;}
	.st2{fill:#C49F48;}
	.st3{fill:#F2B630;}
	.st4{fill:#868C91;}
</style>
<path class="st0" d="M850.5,325.1c-71.8-0.1-129.9-55.6-129.9-123.9c0.1-68.4,58.3-123.7,130.1-123.6
	c71.8,0.1,129.9,55.6,129.9,123.9c0,49.7-31.4,94.5-79.5,113.8C885.3,321.8,868,325.2,850.5,325.1z M850.5,99.8
	c-58.7,0-106.4,45.3-106.4,101.3s47.6,101.3,106.4,101.3c58.7,0,106.4-45.3,106.4-101.3c0-26.9-11.2-52.6-31.1-71.6
	C905.9,110.4,878.8,99.8,850.5,99.8L850.5,99.8z"/>
<path class="st1" d="M850.5,354.3c-88.9,0-160.9-68.6-160.9-153.2S761.7,48,850.7,48c28.7,0,56.8,7.4,81.6,21.1
	c24,13.5,43.9,32.5,57.8,55.5c2.7,4.5,1.1,10.2-3.6,12.9c-4.7,2.7-10.8,1.1-13.6-3.4l0,0c-25.2-41.6-71.8-67.1-122.2-67.1
	c-78,0-141.1,60.2-141,134.3s63,134.2,141,134.2c25.1,0,49.8-6.4,71.4-18.6c21-11.8,38.4-28.6,50.7-48.6c2.7-4.5,8.8-6,13.6-3.5
	c4.7,2.7,6.3,8.4,3.6,12.9C961.3,325.1,908.1,354.3,850.5,354.3L850.5,354.3z"/>
<path class="st2" d="M850.5,378.6c-103.1,0.1-186.6-79.3-186.6-177.4S747.2,23.6,850.3,23.6c0.1,0,0.1,0,0.2,0
	c4.2,0,7.7,3.3,7.7,7.4c0,4-3.5,7.4-7.7,7.4C756,38.2,679.2,111.1,679.2,201s76.5,163,171,163c0.1,0,0.1,0,0.2,0
	c4.2,0,7.7,3.3,7.7,7.4C858.2,375.4,854.7,378.6,850.5,378.6L850.5,378.6z"/>
<path class="st3" d="M675.3,303.5c-2.3,0-4.4-1.2-5.6-3c-37.2-61.5-37.2-137.2,0-198.8c1.7-2.9,5.7-3.9,8.8-2.2
	c3.1,1.7,4.1,5.4,2.3,8.3c-35,57.7-35,128.7,0,186.5c1.7,2.9,0.7,6.6-2.3,8.3C677.5,303.2,676.4,303.5,675.3,303.5L675.3,303.5z"/>
<path class="st4" d="M168.9,494.6c-12.5-6.1-27.2-5.6-39.3,1.2c-6.3,3.6-11.5,8.8-15.1,15.2c-7.3,13.2-7.3,29.2,0,42.4
	c3.6,6.3,8.8,11.6,15.1,15.3c6.4,3.7,13.7,5.7,21.1,5.6c6.2-0.1,12.2-1.4,17.8-3.9c5.9-2.6,11.3-6.2,15.9-10.8l14,15.6
	c-6.5,6.6-14.2,12-22.7,15.7c-8.2,3.8-17.2,5.7-26.3,5.8c-11.5,0.1-22.8-2.8-32.8-8.5c-9.7-5.5-17.8-13.5-23.4-23.2
	c-5.7-9.8-8.6-21-8.5-32.4c-0.1-11.4,2.9-22.5,8.7-32.3c5.7-9.6,13.9-17.5,23.7-22.9c18.3-9.9,40.1-11.1,59.4-3
	c8.2,3.3,15.6,8.4,21.8,14.7l-13.9,17.4C180.2,501.5,174.9,497.4,168.9,494.6z"/>
<path class="st4" d="M416.3,476.9c30.6,17.1,41.6,55.8,24.5,86.5c-0.2,0.4-0.4,0.7-0.6,1.1c-5.7,9.7-14,17.7-23.9,23.2
	c-21,11.4-46.3,11.4-67.2,0c-9.9-5.4-18.1-13.4-23.9-23.2c-17.9-29.8-8.2-68.4,21.6-86.3c0.8-0.4,1.5-0.9,2.3-1.3
	C370.1,465.8,395.2,465.8,416.3,476.9z M361.9,495.4c-20.3,11.8-27.2,37.8-15.3,58.1c3.7,6.4,9,11.7,15.4,15.4
	c6.4,3.8,13.6,5.7,21,5.7c7.3,0,14.5-1.9,20.8-5.7c6.3-3.7,11.6-9,15.2-15.4c3.7-6.5,5.7-13.9,5.6-21.5c0.1-7.5-1.8-14.9-5.6-21.4
	c-3.6-6.3-8.9-11.6-15.2-15.3c-6.3-3.7-13.5-5.6-20.8-5.6C375.6,489.8,368.3,491.7,361.9,495.4z"/>
<path class="st4" d="M565.8,470.3h23.8v53.1h61.9v-53.1h23.8v124.2h-23.8v-50.4h-61.9v50.4h-23.8V470.3z"/>
<path class="st4" d="M798.2,470.7h91v20.8H822v30.7h60.3V543H822v31.2h69.4V595h-93.2V470.7z"/>
<path class="st4" d="M1076.2,493.2c-5.7-2-11.6-3-17.7-3.2c-5.7,0-10.2,1.1-13.5,3.2c-3.1,1.8-5,5.2-5,8.9c-0.1,3.2,1.2,6.3,3.5,8.6
	c2.5,2.4,5.5,4.4,8.7,5.7c4.7,1.9,9.4,3.5,14.3,4.9c7.1,2,14,4.5,20.7,7.5c5.4,2.5,10.1,6.3,13.8,11c3.8,4.9,5.7,11.2,5.7,19.2
	c0.2,7.1-2,14-6.1,19.8c-4.3,5.8-10.1,10.2-16.9,12.9c-7.8,3.1-16.2,4.6-24.6,4.4c-9.7,0-19.4-1.8-28.4-5.4
	c-8.8-3.4-17-8.3-24.1-14.5l9.9-20.2c6.2,5.7,13.3,10.4,21.1,13.7c7.8,3.3,15.1,5,21.8,5c6.6,0,11.8-1.3,15.6-3.8
	c5.8-3.8,7.4-11.6,3.6-17.4c-0.4-0.6-0.9-1.2-1.4-1.8c-2.5-2.4-5.5-4.3-8.8-5.6c-3.5-1.4-8.4-3-14.6-4.8c-7-2-13.9-4.4-20.6-7.3
	c-5.4-2.4-10.1-6.1-13.7-10.7c-3.8-4.8-5.7-11.1-5.7-18.9c-0.1-6.8,1.9-13.4,5.8-18.9c4.2-5.6,9.8-10,16.3-12.5
	c7.8-3.1,16.1-4.6,24.4-4.4c8.1,0,16.1,1.2,23.9,3.5c7.4,2.2,14.5,5.4,21,9.6l-9.6,20.8C1089.6,498.5,1083,495.5,1076.2,493.2z"/>
<path class="st4" d="M1225.7,470.3h23.8v124.2h-23.8V470.3z"/>
<path class="st4" d="M1453.5,494.6c-12.5-6.1-27.2-5.6-39.3,1.2c-6.3,3.6-11.5,8.8-15.1,15.2c-7.3,13.2-7.3,29.2,0,42.4
	c3.6,6.3,8.8,11.6,15.1,15.3c6.4,3.7,13.7,5.7,21.1,5.6c6.2-0.1,12.2-1.4,17.8-3.9c5.9-2.6,11.3-6.2,15.9-10.8l14,15.6
	c-6.5,6.6-14.2,12-22.7,15.7c-8.2,3.8-17.2,5.7-26.3,5.8c-11.5,0.1-22.8-2.8-32.8-8.5c-9.7-5.5-17.8-13.5-23.4-23.2
	c-5.7-9.8-8.6-21-8.5-32.4c-0.1-11.4,2.9-22.5,8.7-32.3c5.7-9.6,13.9-17.5,23.7-22.9c18.3-9.9,40.1-11.1,59.4-3
	c8.2,3.3,15.6,8.4,21.8,14.7l-13.8,17.4C1464.8,501.5,1459.5,497.4,1453.5,494.6z"/>
</svg>
